<svg xmlns="http://www.w3.org/2000/svg" width="234" height="256">
<path d="M108.5 2.354C100.249 6.157 10.108 57.509 7.624 59.822 6.042 61.295 3.914 64.3 2.896 66.5c-1.735 3.746-1.853 7.677-1.874 61.934-.021 56 .045 58.073 1.987 62.084 1.105 2.283 3.017 5.094 4.25 6.247 3.485 3.261 100.519 57.391 104.851 58.491 7.91 2.008 10.255.942 62.448-28.36 27.468-15.422 50.951-28.982 52.183-30.134 1.233-1.152 3.145-3.961 4.25-6.244 1.942-4.011 2.008-6.084 1.987-62.084-.024-64.699.193-62.584-7.091-68.943-1.885-1.645-25.468-15.355-52.407-30.467C124.696 1.657 124.474 1.546 118 1.259c-4.006-.177-7.651.243-9.5 1.095M64.386 39.645c-36.236 20.381-49.543 28.35-50.75 30.394C12.174 72.515 12 78.761 12 128.889v56.079l2.75 2.897c1.513 1.593 24.348 14.978 50.745 29.743 37.728 21.104 48.755 26.847 51.552 26.847 2.798 0 13.796-5.734 51.505-26.85 26.372-14.768 49.186-28.152 50.698-29.743l2.75-2.894v-56.033c0-46.012-.25-56.517-1.397-58.735-2.037-3.938-98.709-58.205-103.662-58.19-2.642.008-14.842 6.423-52.555 27.635M108.5 56.557c-1.1.254-4.367.941-7.259 1.527-17.878 3.616-36.214 16.86-46.106 33.3-16.742 27.825-12.091 64.565 11.109 87.765 7.33 7.33 18.109 14.033 27.855 17.321 11.788 3.977 27.971 4.666 39.734 1.692 15.868-4.013 29.122-12.374 39.089-24.659 2.935-3.618 5.166-6.711 4.957-6.874-.208-.163-7.675-4.474-16.592-9.581l-16.212-9.284-4.625 4.071c-7.91 6.963-12.517 8.665-23.45 8.665-11.102 0-16.677-2.123-23.498-8.948-8.784-8.789-11.91-23.188-7.546-34.754 2.835-7.514 9.641-14.972 16.842-18.458 4.884-2.365 6.921-2.756 14.202-2.725 10.272.043 15.688 2.142 22.878 8.868l4.86 4.546 16.659-9.633 16.659-9.633-2.677-3.632c-9.866-13.381-24.446-23.393-40.267-27.651-5.677-1.528-22.931-2.774-26.612-1.923M108 68.02c-30.93 4.945-53.552 32.715-51.714 63.48 1.875 31.378 26.436 55.74 57.714 57.245 11.673.562 20.456-1.299 30.137-6.386 6.65-3.495 15.863-10.672 15.863-12.358 0-.455-3.167-2.654-7.038-4.886l-7.038-4.057-4.712 3.367c-22.155 15.832-52.557 7.296-64.437-18.092-7.963-17.017-2.939-39.87 11.337-51.569 15.874-13.007 35.816-14.22 52.438-3.187 2.836 1.882 5.408 3.423 5.716 3.423.307 0 3.821-1.881 7.81-4.181l7.251-4.18-4.913-4.3C143.573 71.102 124.325 65.409 108 68.02m64 38.48v5.5h-11v11h11v11h-11v11h11v11.1l5.75-.3 5.75-.3.302-5.25.303-5.25H195v11h11v-11h11v-11h-11v-11h11v-11h-11v-11h-10.895l-.303 5.25-.302 5.25-5.25.302-5.25.303V101h-12v5.5m12 22.052v5.553l5.25-.303 5.25-.302.302-5.25.303-5.25H184v5.552" fill-rule="evenodd"/>
</svg>